<?xml version="1.0" encoding="UTF-8" standalone="no"?>
<svg
   height="143.03607pt"
   version="1.1"
   viewBox="0 0 221.38008 143.03607"
   width="221.38008pt"
   id="svg131614"
   sodipodi:docname="first_order.svg"
   inkscape:version="1.1 (c4e8f9e, 2021-05-24)"
   xmlns:inkscape="http://www.inkscape.org/namespaces/inkscape"
   xmlns:sodipodi="http://sodipodi.sourceforge.net/DTD/sodipodi-0.dtd"
   xmlns:xlink="http://www.w3.org/1999/xlink"
   xmlns="http://www.w3.org/2000/svg"
   xmlns:svg="http://www.w3.org/2000/svg"
   xmlns:rdf="http://www.w3.org/1999/02/22-rdf-syntax-ns#"
   xmlns:cc="http://creativecommons.org/ns#"
   xmlns:dc="http://purl.org/dc/elements/1.1/">
  <sodipodi:namedview
     id="namedview131616"
     pagecolor="#505050"
     bordercolor="#eeeeee"
     borderopacity="1"
     inkscape:pageshadow="0"
     inkscape:pageopacity="0"
     inkscape:pagecheckerboard="0"
     inkscape:document-units="pt"
     showgrid="false"
     inkscape:zoom="4.7497876"
     inkscape:cx="153.16475"
     inkscape:cy="95.056883"
     inkscape:window-width="1296"
     inkscape:window-height="1003"
     inkscape:window-x="0"
     inkscape:window-y="25"
     inkscape:window-maximized="0"
     inkscape:current-layer="axes_1" />
  <metadata
     id="metadata131242">
    <rdf:RDF>
      <cc:Work>
        <dc:type
           rdf:resource="http://purl.org/dc/dcmitype/StillImage" />
        <dc:date>2022-06-18T02:13:06.983593</dc:date>
        <dc:format>image/svg+xml</dc:format>
        <dc:creator>
          <cc:Agent>
            <dc:title>Matplotlib v3.4.1, https://matplotlib.org/</dc:title>
          </cc:Agent>
        </dc:creator>
      </cc:Work>
    </rdf:RDF>
  </metadata>
  <defs
     id="defs131246">
    <linearGradient
       inkscape:collect="always"
       id="linearGradient135182">
      <stop
         style="stop-color:#ffffff;stop-opacity:1;"
         offset="0"
         id="stop135178" />
      <stop
         style="stop-color:#ffffff;stop-opacity:0;"
         offset="1"
         id="stop135180" />
    </linearGradient>
    <linearGradient
       id="linearGradient134723"
       inkscape:swatch="gradient">
      <stop
         style="stop-color:#ffffff;stop-opacity:1;"
         offset="0"
         id="stop134719" />
      <stop
         style="stop-color:#ffffff;stop-opacity:0;"
         offset="1"
         id="stop134721" />
    </linearGradient>
    <style
       type="text/css"
       id="style131244">*{stroke-linecap:butt;stroke-linejoin:round;}</style>
    <radialGradient
       inkscape:collect="always"
       xlink:href="#linearGradient135182"
       id="radialGradient135186"
       cx="256.82932"
       cy="146.1833"
       fx="256.82932"
       fy="146.1833"
       r="9.8500004"
       gradientUnits="userSpaceOnUse" />
    <clipPath
       id="pc9068d80fa-4">
      <rect
         height="271.79999"
         width="248.46269"
         x="60.268658"
         y="43.200001"
         id="rect131609-4" />
    </clipPath>
    <clipPath
       id="pc9068d80fa-5">
      <rect
         height="271.79999"
         width="248.46269"
         x="60.268658"
         y="43.200001"
         id="rect131609-9" />
    </clipPath>
  </defs>
  <g
     id="g131905"
     transform="translate(-74.600906,-47.315404)">
    <g
       id="figure_1">
      <g
         id="patch_1">
        <path
           d="M 0,360 H 360 V 0 H 0 Z"
           style="fill:none"
           id="path131248" />
      </g>
      <g
         id="axes_1">
        <path
           style="fill:none;stroke:#000000;stroke-width:1.85;stroke-linecap:butt;stroke-linejoin:miter;stroke-opacity:1;stroke-miterlimit:4;stroke-dasharray:none"
           d="m 148.50558,137.03508 8.02068,-0.0241"
           id="path137580"
           sodipodi:nodetypes="cc" />
        <g
           id="line2d_1">
          <path
             clip-path="url(#pc9068d80fa)"
             d="M 255.829,179.1 226.10858,127.62273"
             style="fill:none;stroke:#ff0000;stroke-width:2;stroke-linecap:square"
             id="path131251" />
        </g>
        <g
           id="line2d_5-1"
           style="stroke-linecap:butt;stroke-linejoin:round"
           transform="translate(-71.189612,-122.68615)">
          <path
             clip-path="url(#pc9068d80fa-5)"
             d="m 255.829,179.1 v 48.04545"
             style="fill:none;stroke:#008000;stroke-width:2;stroke-dasharray:2, 3.3;stroke-dashoffset:0"
             id="path131263-3" />
        </g>
        <g
           id="line2d_7">
          <path
             clip-path="url(#pc9068d80fa)"
             d="M 226.10858,127.62273 H 142.89142"
             style="fill:none;stroke:#008000;stroke-width:2;stroke-dasharray:2, 3.3;stroke-dashoffset:0"
             id="path131269" />
        </g>
        <g
           id="line2d_8">
          <path
             clip-path="url(#pc9068d80fa)"
             d="M 226.10858,127.62273 184.5,103.6"
             style="fill:none;stroke:#0000ff;stroke-width:2;stroke-dasharray:2, 3.3;stroke-dashoffset:0"
             id="path131272" />
        </g>
        <g
           id="line2d_9">
          <path
             clip-path="url(#pc9068d80fa)"
             d="M 226.10858,127.62273 184.5,55.554545"
             style="fill:none;stroke:#ff0000;stroke-width:2;stroke-dasharray:2, 3.3;stroke-dashoffset:0"
             id="path131275" />
        </g>
        <g
           id="line2d_10">
          <path
             clip-path="url(#pc9068d80fa)"
             d="M 226.10858,127.62273 255.829,179.1"
             style="fill:none;stroke:#ff0000;stroke-width:2;stroke-linecap:square"
             id="path131278" />
        </g>
        <g
           id="line2d_11">
          <path
             clip-path="url(#pc9068d80fa)"
             d="M 226.10858,127.62273 255.829,144.78182"
             style="fill:none;stroke:#0000ff;stroke-width:2;stroke-linecap:square"
             id="path131281" />
        </g>
        <g
           id="line2d_12">
          <path
             clip-path="url(#pc9068d80fa)"
             d="m 226.10858,127.62273 h 59.44084"
             style="fill:none;stroke:#008000;stroke-width:2;stroke-linecap:square"
             id="path131284" />
        </g>
        <g
           id="line2d_13">
          <path
             clip-path="url(#pc9068d80fa)"
             d="M 142.89142,127.62273 113.171,179.1"
             style="fill:none;stroke:#0000ff;stroke-width:2;stroke-linecap:square"
             id="path131287" />
        </g>
        <g
           id="line2d_14">
          <path
             clip-path="url(#pc9068d80fa)"
             d="M 142.89142,127.62273 113.171,144.78182"
             style="fill:none;stroke:#ff0000;stroke-width:2;stroke-linecap:square"
             id="path131290" />
        </g>
        <g
           id="line2d_15">
          <path
             clip-path="url(#pc9068d80fa)"
             d="M 142.89142,127.62273 H 83.450581"
             style="fill:none;stroke:#008000;stroke-width:2;stroke-linecap:square"
             id="path131293" />
        </g>
        <g
           id="line2d_16">
          <path
             clip-path="url(#pc9068d80fa)"
             d="m 142.89142,127.62273 h 83.21716"
             style="fill:none;stroke:#008000;stroke-width:2;stroke-dasharray:2, 3.3;stroke-dashoffset:0"
             id="path131296" />
        </g>
        <g
           id="line2d_17">
          <path
             clip-path="url(#pc9068d80fa)"
             d="M 142.89142,127.62273 184.5,103.6"
             style="fill:none;stroke:#ff0000;stroke-width:2;stroke-dasharray:2, 3.3;stroke-dashoffset:0"
             id="path131299" />
        </g>
        <g
           id="line2d_18">
          <path
             clip-path="url(#pc9068d80fa)"
             d="M 142.89142,127.62273 184.5,55.554545"
             style="fill:none;stroke:#0000ff;stroke-width:2;stroke-dasharray:2, 3.3;stroke-dashoffset:0"
             id="path131302" />
        </g>
        <g
           id="line2d_22">
          <path
             clip-path="url(#pc9068d80fa)"
             d="m 113.171,179.1 29.72042,-51.47727"
             style="fill:none;stroke:#0000ff;stroke-width:2;stroke-linecap:square"
             id="path131314" />
        </g>
        <g
           id="line2d_37" />
        <g
           id="line2d_38" />
        <g
           id="line2d_39" />
        <g
           id="text_1"
           style="fill:#55679e">
          <g
             id="patch_2"
             style="fill:#55679e">
            <path
               d="m 256.82933,189.85148 c 2.47964,0 4.85807,-0.98517 6.61144,-2.73855 1.75338,-1.75338 2.73856,-4.1318 2.73856,-6.61145 0,-2.47965 -0.98518,-4.85807 -2.73856,-6.61145 -1.75337,-1.75337 -4.1318,-2.73855 -6.61144,-2.73855 -2.47965,0 -4.85807,0.98518 -6.61145,2.73855 -1.75338,1.75338 -2.73855,4.1318 -2.73855,6.61145 0,2.47965 0.98517,4.85807 2.73855,6.61145 1.75338,1.75338 4.1318,2.73855 6.61145,2.73855 z"
               style="fill:#55679e;stroke:#000000;stroke-linejoin:miter"
               id="path131362" />
          </g>
          <!-- h0 -->
          <g
             transform="matrix(0.1,0,0,-0.1,250.47933,183.26086)"
             id="g131373"
             style="fill:#55679e">
            <defs
               id="defs131367">
              <path
                 d="M 3513,2113 V 0 h -575 v 2094 q 0,497 -194,743 -194,247 -581,247 -466,0 -735,-297 -269,-296 -269,-809 V 0 H 581 v 4863 h 578 V 2956 q 207,316 486,472 280,156 646,156 603,0 912,-373 310,-373 310,-1098 z"
                 id="DejaVuSans-68"
                 transform="scale(0.015625)" />
              <path
                 d="m 2034,4250 q -487,0 -733,-480 -245,-479 -245,-1442 0,-959 245,-1439 246,-480 733,-480 491,0 736,480 246,480 246,1439 0,963 -246,1442 -245,480 -736,480 z m 0,500 q 785,0 1199,-621 414,-620 414,-1801 0,-1178 -414,-1799 -414,-620 -1199,-620 -784,0 -1198,620 -414,621 -414,1799 0,1181 414,1801 414,621 1198,621 z"
                 id="DejaVuSans-30"
                 transform="scale(0.015625)" />
            </defs>
            <use
               xlink:href="#DejaVuSans-68"
               id="use131369"
               style="fill:#55679e"
               x="0"
               y="0"
               width="100%"
               height="100%" />
            <use
               x="63.378906"
               xlink:href="#DejaVuSans-30"
               id="use131371"
               style="fill:#55679e"
               y="0"
               width="100%"
               height="100%" />
          </g>
        </g>
        <g
           id="text_2"
           style="fill:#55679e;fill-opacity:1">
          <g
             id="patch_3"
             style="fill:#55679e;fill-opacity:1">
            <path
               d="m 256.82933,155.5333 c 2.47964,0 4.85807,-0.98517 6.61144,-2.73855 1.75338,-1.75338 2.73856,-4.1318 2.73856,-6.61145 0,-2.47965 -0.98518,-4.85807 -2.73856,-6.61145 -1.75337,-1.75337 -4.1318,-2.73855 -6.61144,-2.73855 -2.47965,0 -4.85807,0.98518 -6.61145,2.73855 -1.75338,1.75338 -2.73855,4.1318 -2.73855,6.61145 0,2.47965 0.98517,4.85807 2.73855,6.61145 1.75338,1.75338 4.1318,2.73855 6.61145,2.73855 z"
               style="fill:#55679e;fill-opacity:1;stroke:#000000;stroke-linejoin:miter"
               id="path131376" />
          </g>
          <!-- n0 -->
          <g
             transform="matrix(0.1,0,0,-0.1,250.47933,148.94268)"
             id="g131386"
             style="fill:#55679e;fill-opacity:1">
            <defs
               id="defs131380"
               style="fill:url(#radialGradient135186);fill-opacity:1">
              <path
                 d="M 3513,2113 V 0 h -575 v 2094 q 0,497 -194,743 -194,247 -581,247 -466,0 -735,-297 -269,-296 -269,-809 V 0 H 581 v 3500 h 578 v -544 q 207,316 486,472 280,156 646,156 603,0 912,-373 310,-373 310,-1098 z"
                 id="DejaVuSans-6e"
                 transform="scale(0.015625)"
                 style="fill:url(#radialGradient135186);fill-opacity:1" />
            </defs>
            <use
               xlink:href="#DejaVuSans-6e"
               id="use131382"
               style="fill:#55679e;fill-opacity:1"
               x="0"
               y="0"
               width="100%"
               height="100%" />
            <use
               x="63.378906"
               xlink:href="#DejaVuSans-30"
               id="use131384"
               style="fill:#55679e;fill-opacity:1"
               y="0"
               width="100%"
               height="100%" />
          </g>
        </g>
        <g
           id="text_3"
           style="fill:#55679e">
          <g
             id="patch_4"
             style="fill:#55679e">
            <path
               d="m 286.34037,138.16484 c 2.42412,0 4.74928,-0.96312 6.4634,-2.67723 1.71411,-1.71412 2.67722,-4.03928 2.67722,-6.4634 0,-2.42412 -0.96311,-4.74928 -2.67722,-6.4634 -1.71412,-1.71411 -4.03928,-2.67722 -6.4634,-2.67722 -2.42412,0 -4.74929,0.96311 -6.4634,2.67722 -1.71411,1.71412 -2.67723,4.03928 -2.67723,6.4634 0,2.42412 0.96312,4.74928 2.67723,6.4634 1.71411,1.71411 4.03928,2.67723 6.4634,2.67723 z"
               style="fill:#55679e;stroke:#000000;stroke-linejoin:miter"
               id="path131389" />
          </g>
          <!-- v0 -->
          <g
             transform="matrix(0.1,0,0,-0.1,280.19974,131.78359)"
             id="g131399"
             style="fill:#55679e">
            <defs
               id="defs131393">
              <path
                 d="M 191,3500 H 800 L 1894,563 2988,3500 h 609 L 2284,0 h -781 z"
                 id="DejaVuSans-76"
                 transform="scale(0.015625)" />
            </defs>
            <use
               xlink:href="#DejaVuSans-76"
               id="use131395"
               style="fill:#55679e"
               x="0"
               y="0"
               width="100%"
               height="100%" />
            <use
               x="59.179688"
               xlink:href="#DejaVuSans-30"
               id="use131397"
               style="fill:#55679e"
               y="0"
               width="100%"
               height="100%" />
          </g>
        </g>
        <g
           id="text_5"
           style="fill:#55679e">
          <g
             id="patch_6"
             style="fill:#55679e">
            <path
               d="m 185.50032,114.35148 c 2.47965,0 4.85808,-0.98517 6.61145,-2.73855 1.75338,-1.75337 2.73855,-4.1318 2.73855,-6.61145 0,-2.47965 -0.98517,-4.85807 -2.73855,-6.611445 -1.75337,-1.753377 -4.1318,-2.738552 -6.61145,-2.738552 -2.47964,0 -4.85807,0.985175 -6.61144,2.738552 -1.75338,1.753375 -2.73856,4.131795 -2.73856,6.611445 0,2.47965 0.98518,4.85808 2.73856,6.61145 1.75337,1.75338 4.1318,2.73855 6.61144,2.73855 z"
               style="fill:#55679e;stroke:#000000;stroke-linejoin:miter"
               id="path131415" />
          </g>
          <!-- n1 -->
          <g
             transform="matrix(0.1,0,0,-0.1,179.15032,107.76086)"
             id="g131422"
             style="fill:#55679e">
            <use
               xlink:href="#DejaVuSans-6e"
               id="use131418"
               style="fill:#55679e"
               x="0"
               y="0"
               width="100%"
               height="100%" />
            <use
               x="63.378906"
               xlink:href="#DejaVuSans-31"
               id="use131420"
               style="fill:#55679e"
               y="0"
               width="100%"
               height="100%" />
          </g>
        </g>
        <g
           id="text_6"
           style="fill:#55679e">
          <g
             id="patch_7"
             style="fill:#55679e">
            <path
               d="m 185.29095,66.096654 c 2.42412,0 4.74928,-0.963114 6.4634,-2.677227 1.71411,-1.714113 2.67722,-4.039276 2.67722,-6.463398 0,-2.424122 -0.96311,-4.749285 -2.67722,-6.463398 -1.71412,-1.714113 -4.03928,-2.677227 -6.4634,-2.677227 -2.42412,0 -4.74929,0.963114 -6.4634,2.677227 -1.71411,1.714113 -2.67723,4.039276 -2.67723,6.463398 0,2.424122 0.96312,4.749285 2.67723,6.463398 1.71411,1.714113 4.03928,2.677227 6.4634,2.677227 z"
               style="fill:#55679e;stroke:#000000;stroke-linejoin:miter"
               id="path131425" />
          </g>
          <!-- v1 -->
          <g
             transform="matrix(0.1,0,0,-0.1,179.15032,59.715404)"
             id="g131432"
             style="fill:#55679e">
            <use
               xlink:href="#DejaVuSans-76"
               id="use131428"
               style="fill:#55679e"
               x="0"
               y="0"
               width="100%"
               height="100%" />
            <use
               x="59.179688"
               xlink:href="#DejaVuSans-31"
               id="use131430"
               style="fill:#55679e"
               y="0"
               width="100%"
               height="100%" />
          </g>
        </g>
        <g
           id="text_7"
           style="fill:#ffffff">
          <g
             id="patch_8"
             style="fill:#ffffff">
            <path
               d="m 143.89174,138.37421 c 2.47965,0 4.85807,-0.98517 6.61145,-2.73855 1.75338,-1.75338 2.73855,-4.1318 2.73855,-6.61145 0,-2.47965 -0.98517,-4.85807 -2.73855,-6.61145 -1.75338,-1.75337 -4.1318,-2.73855 -6.61145,-2.73855 -2.47965,0 -4.85807,0.98518 -6.61145,2.73855 -1.75337,1.75338 -2.73855,4.1318 -2.73855,6.61145 0,2.47965 0.98518,4.85807 2.73855,6.61145 1.75338,1.75338 4.1318,2.73855 6.61145,2.73855 z"
               style="fill:#ffffff;stroke:#000000;stroke-linejoin:miter"
               id="path131435" />
          </g>
          <!-- h2 -->
          <g
             transform="matrix(0.1,0,0,-0.1,137.54174,131.78359)"
             id="g131445"
             style="fill:#ffffff">
            <defs
               id="defs131439">
              <path
                 d="M 1228,531 H 3431 V 0 H 469 v 531 q 359,372 979,998 621,627 780,809 303,340 423,576 121,236 121,464 0,372 -261,606 -261,235 -680,235 -297,0 -627,-103 -329,-103 -704,-313 v 638 q 381,153 712,231 332,78 607,78 725,0 1156,-363 431,-362 431,-968 0,-288 -108,-546 -107,-257 -392,-607 -78,-91 -497,-524 Q 1991,1309 1228,531 Z"
                 id="DejaVuSans-32"
                 transform="scale(0.015625)" />
            </defs>
            <use
               xlink:href="#DejaVuSans-68"
               id="use131441"
               style="fill:#ffffff"
               x="0"
               y="0"
               width="100%"
               height="100%" />
            <use
               x="63.378906"
               xlink:href="#DejaVuSans-32"
               id="use131443"
               style="fill:#ffffff"
               y="0"
               width="100%"
               height="100%" />
          </g>
        </g>
        <g
           id="text_8"
           style="fill:#55679e">
          <g
             id="patch_9"
             style="fill:#55679e">
            <path
               d="m 114.17132,155.5333 c 2.47965,0 4.85807,-0.98517 6.61145,-2.73855 1.75338,-1.75338 2.73855,-4.1318 2.73855,-6.61145 0,-2.47965 -0.98517,-4.85807 -2.73855,-6.61145 -1.75338,-1.75337 -4.1318,-2.73855 -6.61145,-2.73855 -2.47965,0 -4.85807,0.98518 -6.61144,2.73855 -1.75338,1.75338 -2.73856,4.1318 -2.73856,6.61145 0,2.47965 0.98518,4.85807 2.73856,6.61145 1.75337,1.75338 4.13179,2.73855 6.61144,2.73855 z"
               style="fill:#55679e;stroke:#000000;stroke-linejoin:miter"
               id="path131448" />
          </g>
          <!-- n2 -->
          <g
             transform="matrix(0.1,0,0,-0.1,107.82132,148.94268)"
             id="g131455"
             style="fill:#55679e">
            <use
               xlink:href="#DejaVuSans-6e"
               id="use131451"
               style="fill:#55679e"
               x="0"
               y="0"
               width="100%"
               height="100%" />
            <use
               x="63.378906"
               xlink:href="#DejaVuSans-32"
               id="use131453"
               style="fill:#55679e"
               y="0"
               width="100%"
               height="100%" />
          </g>
        </g>
        <g
           id="text_9"
           style="fill:#55679e">
          <g
             id="patch_10"
             style="fill:#55679e">
            <path
               d="m 84.241531,138.16484 c 2.424122,0 4.749285,-0.96312 6.463398,-2.67723 1.714113,-1.71412 2.677227,-4.03928 2.677227,-6.4634 0,-2.42412 -0.963114,-4.74928 -2.677227,-6.4634 -1.714113,-1.71411 -4.039276,-2.67722 -6.463398,-2.67722 -2.424122,0 -4.749285,0.96311 -6.463398,2.67722 -1.714113,1.71412 -2.677227,4.03928 -2.677227,6.4634 0,2.42412 0.963114,4.74928 2.677227,6.4634 1.714113,1.71411 4.039276,2.67723 6.463398,2.67723 z"
               style="fill:#55679e;stroke:#000000;stroke-linejoin:miter"
               id="path131458" />
          </g>
          <!-- v2 -->
          <g
             transform="matrix(0.1,0,0,-0.1,78.100906,131.78359)"
             id="g131465"
             style="fill:#55679e">
            <use
               xlink:href="#DejaVuSans-76"
               id="use131461"
               style="fill:#55679e"
               x="0"
               y="0"
               width="100%"
               height="100%" />
            <use
               x="59.179688"
               xlink:href="#DejaVuSans-32"
               id="use131463"
               style="fill:#55679e"
               y="0"
               width="100%"
               height="100%" />
          </g>
        </g>
        <g
           id="text_10"
           style="fill:#55679e">
          <g
             id="patch_11"
             style="fill:#55679e">
            <path
               d="m 114.17132,189.85148 c 2.47965,0 4.85807,-0.98517 6.61145,-2.73855 1.75338,-1.75338 2.73855,-4.1318 2.73855,-6.61145 0,-2.47965 -0.98517,-4.85807 -2.73855,-6.61145 -1.75338,-1.75337 -4.1318,-2.73855 -6.61145,-2.73855 -2.47965,0 -4.85807,0.98518 -6.61144,2.73855 -1.75338,1.75338 -2.73856,4.1318 -2.73856,6.61145 0,2.47965 0.98518,4.85807 2.73856,6.61145 1.75337,1.75338 4.13179,2.73855 6.61144,2.73855 z"
               style="fill:#55679e;stroke:#000000;stroke-linejoin:miter"
               id="path131468" />
          </g>
          <!-- h3 -->
          <g
             transform="matrix(0.1,0,0,-0.1,107.82132,183.26086)"
             id="g131478"
             style="fill:#55679e">
            <defs
               id="defs131472">
              <path
                 d="m 2597,2516 q 453,-97 707,-404 255,-306 255,-756 0,-690 -475,-1069 -475,-378 -1350,-378 -293,0 -604,58 -311,58 -642,174 v 609 q 262,-153 574,-231 313,-78 654,-78 593,0 904,234 311,234 311,681 0,413 -289,645 -289,233 -804,233 h -544 v 519 h 569 q 465,0 712,186 247,186 247,536 0,359 -255,551 -254,193 -729,193 -260,0 -557,-57 -297,-56 -653,-174 v 562 q 360,100 674,150 314,50 592,50 719,0 1137,-327 419,-326 419,-882 0,-388 -222,-655 -222,-267 -631,-370 z"
                 id="DejaVuSans-33"
                 transform="scale(0.015625)" />
            </defs>
            <use
               xlink:href="#DejaVuSans-68"
               id="use131474"
               style="fill:#55679e"
               x="0"
               y="0"
               width="100%"
               height="100%" />
            <use
               x="63.378906"
               xlink:href="#DejaVuSans-33"
               id="use131476"
               style="fill:#55679e"
               y="0"
               width="100%"
               height="100%" />
          </g>
        </g>
        <g
           id="text_4"
           style="fill:#000000">
          <g
             id="patch_5"
             style="fill:#000000">
            <path
               d="m 227.10891,138.37421 c 2.47965,0 4.85807,-0.98517 6.61145,-2.73855 1.75337,-1.75338 2.73855,-4.1318 2.73855,-6.61145 0,-2.47965 -0.98518,-4.85807 -2.73855,-6.61145 -1.75338,-1.75337 -4.1318,-2.73855 -6.61145,-2.73855 -2.47965,0 -4.85807,0.98518 -6.61145,2.73855 -1.75338,1.75338 -2.73855,4.1318 -2.73855,6.61145 0,2.47965 0.98517,4.85807 2.73855,6.61145 1.75338,1.75338 4.1318,2.73855 6.61145,2.73855 z"
               style="fill:#000000;stroke:#000000;stroke-linejoin:miter"
               id="path131402" />
          </g>
          <!-- h1 -->
          <g
             transform="matrix(0.1,0,0,-0.1,220.75891,131.78359)"
             id="g131412"
             style="fill:#000000">
            <defs
               id="defs131406">
              <path
                 d="M 794,531 H 1825 V 4091 L 703,3866 v 575 l 1116,225 h 631 V 531 H 3481 V 0 H 794 Z"
                 id="DejaVuSans-31"
                 transform="scale(0.015625)" />
            </defs>
            <use
               xlink:href="#DejaVuSans-68"
               id="use131408"
               style="fill:#000000"
               x="0"
               y="0"
               width="100%"
               height="100%" />
            <use
               x="63.378906"
               xlink:href="#DejaVuSans-31"
               id="use131410"
               style="fill:#000000"
               y="0"
               width="100%"
               height="100%" />
          </g>
        </g>
        <path
           style="fill:none;stroke:#000000;stroke-width:1.85;stroke-linecap:butt;stroke-linejoin:miter;stroke-opacity:1;stroke-miterlimit:4;stroke-dasharray:none"
           d="m 220.28132,135.9706 c -7.9075,8.8199 -66.16157,10.47682 -71.77574,1.06448"
           id="path137545" />
        <path
           style="fill:none;stroke:#000000;stroke-width:1.85;stroke-linecap:butt;stroke-linejoin:miter;stroke-opacity:1;stroke-miterlimit:4;stroke-dasharray:none"
           d="m 148.50558,137.03508 1.1127,7.00443"
           id="path137582"
           sodipodi:nodetypes="cc" />
        <path
           style="fill:none;stroke:#000000;stroke-width:1.85;stroke-linecap:butt;stroke-linejoin:miter;stroke-opacity:1;stroke-miterlimit:4;stroke-dasharray:none"
           d="m 152.64887,124.83483 c 10.21846,-5.81396 45.45457,-10.57084 65.53915,0.17617"
           id="path137697" />
        <path
           style="fill:none;stroke:#000000;stroke-width:1.85;stroke-linecap:butt;stroke-linejoin:miter;stroke-opacity:1;stroke-miterlimit:4;stroke-dasharray:none"
           d="m 218.18802,125.011 -2.64271,-6.34249"
           id="path137699" />
        <path
           style="fill:none;stroke:#000000;stroke-width:1.85;stroke-linecap:butt;stroke-linejoin:miter;stroke-opacity:1;stroke-miterlimit:4;stroke-dasharray:none"
           d="m 218.18802,125.011 -6.51868,1.93799"
           id="path137701"
           sodipodi:nodetypes="cc" />
      </g>
    </g>
  </g>
  <defs
     id="defs131612">
    <clipPath
       id="pc9068d80fa">
      <rect
         height="271.79999"
         width="248.46269"
         x="60.268658"
         y="43.200001"
         id="rect131609" />
    </clipPath>
  </defs>
</svg>
